<svg width="22" height="22" viewBox="0 0 22 22" fill="none" xmlns="http://www.w3.org/2000/svg">
<path d="M10.8565 22C9.9 22 9.42174 21.6846 9.42174 21.0538V12.5849H0.956522C0.318841 12.5849 0 12.1118 0 11.1656V10.8344C0 9.88817 0.318841 9.41505 0.956522 9.41505H9.42174V0.946237C9.42174 0.315413 9.9 0 10.8565 0H11.1913C12.1478 0 12.6261 0.315413 12.6261 0.946237V9.41505H21.0435C21.6812 9.41505 22 9.88817 22 10.8344V11.1656C22 12.1118 21.6812 12.5849 21.0435 12.5849H12.6261V21.0538C12.6261 21.6846 12.1478 22 11.1913 22H10.8565Z" fill="#7F6EF2"/>
</svg>
