<svg width="15" height="15" viewBox="0 0 15 15" fill="none" xmlns="http://www.w3.org/2000/svg">
<path d="M7.5 1.97789C7.88815 1.53784 8.4011 1.22642 8.9706 1.08507C9.54009 0.943724 10.1391 0.979145 10.688 1.18662C11.2369 1.3941 11.7095 1.7638 12.0431 2.24653C12.3767 2.72925 12.5554 3.30212 12.5554 3.88889C12.5554 4.47566 12.3767 5.04853 12.0431 5.53125C11.7095 6.01398 11.2369 6.38368 10.688 6.59116C10.1391 6.79863 9.54009 6.83406 8.9706 6.69271C8.4011 6.55136 7.88815 6.23994 7.5 5.79989M9.66667 14H1V13.2778C1 12.1285 1.45655 11.0263 2.2692 10.2136C3.08186 9.40099 4.18406 8.94445 5.33333 8.94445C6.4826 8.94445 7.5848 9.40099 8.39746 10.2136C9.21012 11.0263 9.66667 12.1285 9.66667 13.2778V14ZM9.66667 14H14V13.2778C14.0001 12.5171 13.8 11.7697 13.4197 11.1109C13.0394 10.4521 12.4924 9.90494 11.8336 9.52454C11.1748 9.14414 10.4275 8.94386 9.66682 8.94383C8.90611 8.94381 8.15879 9.14403 7.5 9.52439M8.22222 3.88889C8.22222 4.65507 7.91786 5.38987 7.37609 5.93164C6.83431 6.47341 6.09951 6.77778 5.33333 6.77778C4.56715 6.77778 3.83235 6.47341 3.29058 5.93164C2.74881 5.38987 2.44444 4.65507 2.44444 3.88889C2.44444 3.12271 2.74881 2.38791 3.29058 1.84614C3.83235 1.30436 4.56715 1 5.33333 1C6.09951 1 6.83431 1.30436 7.37609 1.84614C7.91786 2.38791 8.22222 3.12271 8.22222 3.88889Z" stroke="#FF9500" stroke-width="1.5" stroke-linecap="round" stroke-linejoin="round"/>
</svg>
