<svg width="23" height="23" viewBox="0 0 23 23" fill="none" xmlns="http://www.w3.org/2000/svg">
<path d="M21 21L14.6667 14.6667M16.7778 9.38889C16.7778 10.3592 16.5867 11.32 16.2153 12.2165C15.844 13.113 15.2997 13.9275 14.6136 14.6136C13.9275 15.2997 13.113 15.844 12.2165 16.2153C11.32 16.5867 10.3592 16.7778 9.38889 16.7778C8.41857 16.7778 7.45775 16.5867 6.56128 16.2153C5.66482 15.844 4.85028 15.2997 4.16416 14.6136C3.47803 13.9275 2.93377 13.113 2.56245 12.2165C2.19112 11.32 2 10.3592 2 9.38889C2 7.42923 2.77847 5.54984 4.16416 4.16416C5.54984 2.77847 7.42923 2 9.38889 2C11.3485 2 13.2279 2.77847 14.6136 4.16416C15.9993 5.54984 16.7778 7.42923 16.7778 9.38889Z" stroke="#7F6EF2" stroke-width="2.6" stroke-linecap="round" stroke-linejoin="round"/>
</svg>
