<svg width="21" height="21" viewBox="0 0 21 21" fill="none" xmlns="http://www.w3.org/2000/svg">
<path d="M20 19.6979L13.6667 13.3645M15.7778 8.08677C15.7778 9.05709 15.5867 10.0179 15.2153 10.9144C14.844 11.8108 14.2997 12.6254 13.6136 13.3115C12.9275 13.9976 12.113 14.5419 11.2165 14.9132C10.32 15.2845 9.35921 15.4757 8.38889 15.4757C7.41857 15.4757 6.45775 15.2845 5.56128 14.9132C4.66482 14.5419 3.85028 13.9976 3.16416 13.3115C2.47803 12.6254 1.93377 11.8108 1.56245 10.9144C1.19112 10.0179 1 9.05709 1 8.08677C1 6.12711 1.77847 4.24772 3.16416 2.86203C4.54984 1.47635 6.42923 0.697876 8.38889 0.697876C10.3485 0.697876 12.2279 1.47635 13.6136 2.86203C14.9993 4.24772 15.7778 6.12711 15.7778 8.08677Z" stroke="#7F6EF2" stroke-width="1.3" stroke-linecap="round" stroke-linejoin="round"/>
</svg>
