<svg width="17" height="13" viewBox="0 0 17 13" fill="none" xmlns="http://www.w3.org/2000/svg">
<path fill-rule="evenodd" clip-rule="evenodd" d="M10.5907 0.448413C10.5656 0.371935 10.5224 0.302658 10.4647 0.246472C10.4071 0.190287 10.3367 0.148854 10.2596 0.125697C10.1825 0.10254 10.1009 0.0983435 10.0218 0.113464C9.94278 0.128584 9.86852 0.162574 9.80541 0.212545L5.48302 3.62547L3.75581 0.413919C3.709 0.32666 3.63734 0.255265 3.5499 0.208784C3.46247 0.162303 3.3632 0.142829 3.26469 0.152833C3.16617 0.162836 3.07285 0.201865 2.99654 0.264972C2.92024 0.328079 2.86439 0.412423 2.83607 0.507309L0.966381 6.7326C0.813805 7.24062 0.869286 7.78844 1.12062 8.25554C1.37195 8.72265 1.79855 9.07079 2.30657 9.22336L11.8839 12.0998C12.392 12.2524 12.9398 12.1969 13.4069 11.9456C13.874 11.6942 14.2221 11.2676 14.3747 10.7596L16.2444 4.53434C16.273 4.43955 16.2729 4.3384 16.244 4.24369C16.2151 4.14898 16.1587 4.06499 16.082 4.00236C16.0053 3.93974 15.9117 3.90129 15.8132 3.89191C15.7146 3.88253 15.6155 3.90262 15.5283 3.94965L12.3174 5.67811L10.5907 0.448413Z" fill="#FF9500"/>
</svg>
