<svg width="16" height="14" viewBox="0 0 16 14" fill="none" xmlns="http://www.w3.org/2000/svg">
<path d="M14.3255 1.0103C12.5192 -0.508446 9.72862 -0.280321 8.00049 1.47905C6.27237 -0.280321 3.48174 -0.511571 1.67549 1.0103C-0.674508 2.98843 -0.330758 6.21343 1.34424 7.9228L6.82549 13.5072C7.13799 13.8259 7.55674 14.0041 8.00049 14.0041C8.44737 14.0041 8.86299 13.8291 9.17549 13.5103L14.6567 7.92593C16.3286 6.21655 16.6786 2.99155 14.3255 1.0103ZM13.588 6.86968L8.10674 12.4541C8.03174 12.5291 7.96924 12.5291 7.89424 12.4541L2.41299 6.86968C1.27237 5.70718 1.04112 3.50718 2.64112 2.1603C3.85674 1.13843 5.73174 1.29155 6.90674 2.48843L8.00049 3.60405L9.09424 2.48843C10.2755 1.2853 12.1505 1.13843 13.3599 2.15718C14.9567 3.50405 14.7192 5.71655 13.588 6.86968Z" fill="#7F6EF2"/>
</svg>
