<svg width="18" height="21" viewBox="0 0 18 21" fill="none" xmlns="http://www.w3.org/2000/svg">
<path d="M1.83108 6.96577L1.83114 6.96573L8.93297 1.36951C8.93303 1.36947 8.93308 1.36942 8.93313 1.36938C8.97001 1.34053 9.02175 1.34099 9.05753 1.36904C9.05758 1.36908 9.05762 1.36911 9.05767 1.36915L16.161 6.96575L16.161 6.96577C16.9066 7.55313 17.3416 8.44992 17.3416 9.39931V18.9394C17.3416 19.2705 17.0734 19.5388 16.7422 19.5388H12.2443C11.9131 19.5388 11.6449 19.2705 11.6449 18.9394V14.4415C11.6449 13.5302 10.9066 12.7919 9.99533 12.7919H7.99627C7.08504 12.7919 6.34673 13.5302 6.34673 14.4415V18.9394C6.34673 19.2705 6.07851 19.5388 5.74732 19.5388H1.24942C0.918224 19.5388 0.65 19.2705 0.65 18.9394V9.40031C0.65 8.45047 1.08548 7.55317 1.83108 6.96577Z" fill="#7F6EF2" stroke="#7F6EF2" stroke-width="1.3"/>
</svg>
