<svg width="12493" height="2585" viewBox="0 0 12493 2585" fill="none" xmlns="http://www.w3.org/2000/svg">
<path fill-rule="evenodd" clip-rule="evenodd" d="M11722.5 0.926229L11725.6 0.930746C11743.1 0.976572 11760.2 1.86607 11777.6 4.23873L11780.7 4.64449C11815 9.22949 11849.8 19.7526 11881.2 34.1518C11883.6 35.2229 11885.9 36.2667 11888.3 37.309C11905.9 45.2498 11922.8 55.1029 11938.6 66.2387L11941.9 68.4848C11951.2 74.9433 11959.9 81.9714 11968.6 89.2387L11971.6 91.7368C11980.7 99.2971 11989.1 107.429 11997.4 115.804C11999.6 118.005 12001.8 120.199 12003.9 122.391L12008.2 126.661L12010.1 128.609C12013.9 132.411 12017.5 136.334 12021 140.38C12023.2 142.956 12025.6 145.357 12028.1 147.77L12029.5 149.225C12031.1 150.732 12032.6 152.236 12034.1 153.739C12039.9 159.401 12045.5 165.039 12050.8 171.174C12054.1 174.941 12057.7 178.48 12061.3 182.015L12061.4 182.02L12061.4 182.03L12061.4 182.098L12062.7 183.3L12063.6 184.239C12069.8 190.384 12075.9 196.561 12081.6 203.239L12083.4 205.262L12084.5 206.52C12111.2 237.092 12132 272.481 12147.4 309.989L12148.8 313.411C12150.9 318.599 12152.8 323.655 12154.1 329.11L12154.1 329.128L12154.1 329.173L12154.1 329.219L12154.1 329.264L12154.1 329.311L12154.1 329.358C12155.1 333.683 12155.5 335.846 12156.5 337.774C12157.4 339.676 12158.8 341.35 12161.6 344.643C12166.3 346.968 12171.3 348.33 12176.4 349.701L12178.3 350.213C12184.2 352.03 12189.8 354.581 12195.3 357.138L12196.1 357.489L12198 358.34C12228.7 372.295 12256.8 390.602 12282.6 412.239L12285.7 414.768C12294.4 422.074 12302.5 429.867 12310.5 437.949C12312.6 440.006 12314.6 442.055 12316.7 444.102L12320.6 448.098L12322.5 449.914C12326.1 453.626 12329.6 457.456 12333 461.41L12333.1 461.444L12333.1 461.465L12333.1 461.485L12333.1 461.493L12333.1 461.505C12338.6 467.865 12341.4 471.055 12344.3 474.077C12347.3 477.1 12350.4 479.955 12356.6 485.647L12356.6 485.676C12358.9 487.663 12360.7 489.434 12362.6 491.743C12367 496.755 12371.7 501.384 12376.4 506.032L12377.1 506.739C12382.6 512.183 12388.1 517.616 12393.1 523.509C12395.1 525.855 12397.3 528.103 12399.4 530.364C12405.1 536.718 12410.4 543.385 12415.6 550.239L12417.2 552.282C12477.7 632.918 12502.4 734.646 12488.6 834.239C12483.3 869.285 12473.7 903.465 12458.8 935.67C12457.7 938.116 12456.6 940.574 12455.5 943.036C12447.1 961.699 12436.5 979.549 12424.6 996.239L12423 998.483C12415.4 1009.18 12407.4 1019.48 12398.6 1029.24L12396.2 1031.87C12380.1 1049.66 12363.6 1066.98 12343.8 1080.72C12341.7 1082.16 12339.7 1083.64 12337.7 1085.16C12328.8 1091.91 12319.5 1097.86 12310 1103.77C12307.7 1105.17 12305.5 1106.6 12303.3 1108.04C12301.8 1108.96 12300.4 1109.88 12299 1110.8L12296.9 1112.16L12292.7 1114.88C12289.5 1116.98 12286.2 1119.07 12283 1121.17L12282.9 1121.25L12282.1 1121.74L12277.9 1124.49L12235.4 1151.99L12233.2 1153.36L12229 1156.12C12225.5 1158.39 12221.9 1160.67 12218.4 1162.95L12216.5 1164.23C12216 1164.49 12215.6 1164.76 12215.2 1165.03C12214.6 1165.44 12214 1165.86 12213.4 1166.28C12213 1166.53 12212.7 1166.78 12212.3 1167.03C12209.8 1168.74 12207.7 1169.99 12205.3 1171.44L12205.2 1171.47L12205.2 1171.49C12203.9 1172.22 12202.6 1173.01 12201.1 1173.92L12200.2 1174.53L12200.1 1174.54L12200.1 1174.55C12194.4 1178.06 12192.3 1179.37 12185.6 1183.92C12185.7 1190.17 12185.8 1196.34 12185.9 1202.45L12185.9 1202.58C12186 1209.63 12186.1 1216.58 12186.1 1223.42C12186.2 1225.37 12186.2 1227.25 12186.3 1229.11L12186.3 1229.21C12186.4 1230.49 12186.4 1231.77 12186.4 1233.05C12186.5 1234.68 12186.5 1236.31 12186.5 1238C12187 1245.39 12187.1 1252.99 12187.1 1260.55C12187.1 1263.52 12187.1 1266.48 12187.1 1269.42C12187.2 1269.82 12187.2 1271.05 12187.2 1272.56L12187.1 1275.08C12187.1 1276.22 12187.1 1277.36 12187.1 1278.33C12187.1 1279.58 12187.1 1280.56 12187.1 1280.92C12188.8 1284.26 12189.3 1284.84 12190.1 1285.67C12190.7 1286.33 12191.5 1287.16 12193 1289.68L12194 1291.23C12194.6 1292.27 12195.2 1293.31 12195.8 1294.35L12197.2 1296.78C12213.6 1325.56 12223 1357.8 12228.6 1390.24L12229.1 1392.99C12234.5 1423.21 12233.7 1456.8 12229.2 1487.09C12228.5 1491.72 12227.9 1496.36 12227.3 1501.01L12227.1 1503.05C12225.3 1516.45 12223.5 1529.85 12221.6 1543.24L12221.2 1545.99C12209.4 1630.14 12189.7 1713.66 12163 1825.36L12162 1829.58C12161.2 1832.81 12160.5 1836.04 12159.7 1839.27C12145.8 1896.8 12130.5 1953.85 12113.7 2010.6C12112.6 2014.38 12111.5 2018.16 12110.3 2021.95C12099.3 2059.43 12088.1 2096.87 12076.6 2134.24L12075.7 2137.28C12054.3 2207.11 12032.9 2276.49 11994.6 2339.24L11993.2 2341.55C11983.6 2357.42 11972.9 2372.51 11961.6 2387.24L11960.2 2389.14C11954.3 2396.8 11948.2 2404.12 11941.6 2411.24C11940.9 2412.06 11940.2 2412.88 11939.5 2413.71L11938.2 2415.11C11927.5 2427.42 11916.3 2439.79 11903.8 2450.36C11902 2451.91 11900.2 2453.49 11898.4 2455.09C11823.1 2521.64 11731.1 2570.48 11537 2580.43L11534.9 2580.54C11505.4 2582.01 11475.9 2582.39 11446.5 2582.74L11438.9 2582.84C11426.9 2582.99 11414.9 2583.13 11402.9 2583.27L11394.2 2583.37C11337 2584.02 11279.7 2584.45 11222.5 2584.48L11216.5 2584.49L11207.1 2584.5C11202.5 2584.51 11197.7 2584.54 11192.6 2584.58L11185.6 2584.64C11095.4 2585.45 10935.6 2586.88 10806.6 2510.24C10805.2 2509.47 10804.5 2509.07 10804.1 2508.8C10803.5 2508.47 10803.3 2508.31 10802.5 2507.88C10794.9 2503.44 10787.4 2498.67 10780.1 2493.65C10675.4 2564.41 10567.3 2584 10484.1 2584H9305.62C9229.64 2584 9159.83 2564.97 9100.72 2529.36C9016.21 2571.29 8933.06 2584 8866.02 2584H7687.53C7611.55 2584 7541.73 2564.97 7482.62 2529.36C7398.11 2571.29 7314.96 2584 7247.92 2584H6069.42C5993.45 2584 5923.64 2564.97 5864.53 2529.36C5780.02 2571.29 5696.87 2584 5629.83 2584H4451.33C4375.35 2584 4305.54 2564.97 4246.43 2529.36C4161.92 2571.29 4078.77 2584 4011.73 2584H3835.84C3757.09 2584 3684.97 2563.56 3624.53 2525.41C3537.34 2570.49 3451.13 2584 3382.03 2584H2833.23C2757.06 2584 2687.08 2564.87 2627.88 2529.08C2543.17 2571.23 2459.8 2584 2392.61 2584H1843.82C1715.32 2584 1604.47 2529.57 1533.2 2432.56C1458.73 2331.21 1440.27 2199.74 1478.85 2068.18L1694.75 1303.99C1705.47 1265.16 1721.53 1221.98 1745.16 1178.22C1747.03 1130.73 1755.72 1088.3 1764.43 1056.25L1764.74 1055.09L1814.55 876.172C1839.7 784.536 1894.64 668.399 2008.59 577.713C2123.61 486.175 2246.63 462.013 2339.05 462.013H2887.84C2964.02 462.013 3033.99 481.142 3093.2 516.931C3177.91 474.784 3261.27 462.013 3328.46 462.013H4506.96C4635.46 462.013 4746.31 516.443 4817.59 613.449C4879.64 697.907 4902.8 803.27 4886.47 912.17H5041.53L5052.12 874.911C5077.43 783.472 5132.38 667.983 5245.81 577.713C5360.83 486.175 5483.85 462.013 5576.27 462.013H6125.06C6201.04 462.013 6270.85 481.042 6329.95 516.651C6414.47 474.727 6497.62 462.013 6564.65 462.013H7743.15C7819.13 462.013 7888.94 481.043 7948.05 516.654C8032.56 474.728 8115.71 462.013 8182.75 462.013H9361.25C9437.23 462.013 9507.04 481.043 9566.15 516.653C9650.66 474.727 9733.81 462.013 9800.85 462.013H10349.6C10478.1 462.013 10589 516.443 10660.3 613.449C10734.6 714.627 10753.1 845.809 10714.8 977.134L10574.2 1480.23H10695.5C10707.6 1480.23 10720.9 1480.68 10734.9 1481.81C10737.5 1472.95 10740 1464.09 10742.6 1455.24L10743.2 1453.04C10761.2 1391.28 10779.8 1329.74 10798.6 1268.24L10799.3 1266.01C10805 1247.28 10810.7 1228.55 10816.5 1209.82C10820.1 1197.79 10823.8 1185.76 10827.5 1173.72L10828.9 1169.22L10829.6 1166.97L10834.3 1151.31L10837.1 1142.37L10837.8 1140.13C10841.6 1127.64 10845.4 1115.14 10849.2 1102.65C10853.1 1089.74 10857.1 1076.84 10861 1063.94C10863.2 1056.9 10865.3 1049.86 10867.5 1042.81C10874.2 1020.48 10881.1 998.897 10895.6 980.239L10897.8 977.43C10907.4 965.141 10919.4 952.336 10933.6 945.239C10932.2 941.277 10930.5 938.64 10927.7 935.489C10880.6 879.044 10854.8 804.817 10848.6 732.239L10848.4 729.716C10848 724.559 10847.7 719.41 10847.6 714.239L10847.5 711.617C10847 683.504 10849.7 655.875 10854.6 628.239L10855.2 624.944C10858 609.569 10862.9 594.969 10868 580.239L10868.9 577.486C10885.2 530.834 10909.9 487.356 10943.3 450.821C10945.2 448.747 10947 446.647 10948.8 444.528C10953 439.763 10957.4 435.272 10961.9 430.801L10964.4 428.255C10970.2 422.499 10976.2 417.258 10982.6 412.239C10984.5 410.659 10986.3 409.075 10988.2 407.489C11011 388.47 11036.8 373.03 11063.6 360.239L11065.9 359.161C11111.6 337.441 11163.9 323.951 11214.7 324.125L11218.2 324.125C11221.9 324.125 11225.6 324.133 11229.4 324.141L11237.2 324.145L11244.5 324.151L11255.6 324.167C11262.6 324.178 11269.6 324.183 11276.5 324.188C11290.9 324.199 11305.3 324.216 11319.6 324.239L11320.5 321.898C11321.7 319.095 11323 316.593 11324.6 313.977L11326.4 310.877L11328.3 307.551L11330.3 304.069C11331.7 301.657 11333.1 299.246 11334.5 296.836C11336.9 292.669 11339.3 288.493 11341.8 284.316L11342 283.893L11342.3 283.341C11348.3 272.966 11354.3 262.614 11360.3 252.277C11364.6 244.946 11368.9 237.596 11373.1 230.239C11379.7 218.816 11386.3 207.405 11393 196.035C11394 194.217 11395.1 192.397 11396.2 190.576C11416.8 155.103 11443.1 120.856 11474.6 94.2387L11477.4 91.7895C11544.9 33.4188 11633.3 0.600537 11722.5 0.926229ZM2721.79 1167.93C2745.5 1170.08 2764.38 1180.43 2778.43 1198.98C2792.95 1218.16 2797.22 1240.26 2791.25 1265.28C2790.69 1267.63 2790.04 1270 2789.3 1272.41L2574.19 2024.17C2554.94 2094.1 2510.01 2129.06 2439.39 2129.06H1888.57C1860.32 2129.06 1838.26 2118.57 1822.37 2097.59C1806.49 2076.62 1802.87 2052.14 1811.51 2024.17L2026.62 1272.41C2028.67 1264.97 2031 1257.93 2033.63 1251.28C2048.26 1214.26 2071.91 1189.52 2104.57 1177.03C2104.62 1177.15 2104.68 1177.26 2104.74 1177.38C2121.15 1171.22 2139.77 1168.14 2160.58 1168.14H2717.59C2718.98 1168.14 2720.35 1168.17 2721.71 1168.22L2721.79 1167.93ZM11607 2149.39C11563.2 2160.68 11477.8 2161.43 11286.4 2163.09C10942.9 2167.12 10917.8 2163.09 10904.7 2108.68C10900.9 2093.48 10960.8 1864.01 11022.2 1644.95C11022.2 1644.99 11022.3 1645.03 11022.3 1645.07C11029.1 1620.75 11035.9 1596.65 11042.6 1573.1C11042.6 1573.08 11042.6 1573.07 11042.5 1573.05C11047.1 1556.92 11051.7 1540.98 11056.2 1525.35L11057.3 1521.68L11058.4 1517.87L11059.8 1513.08L11061.3 1507.74L11061.4 1507.59L11062.3 1504.53L11062.5 1503.71C11063.9 1498.95 11065.3 1494.22 11066.6 1489.53L11071 1474.41C11072.6 1469.22 11074.1 1464.09 11075.6 1459.01C11076.2 1456.88 11076.8 1454.76 11077.4 1452.65V1452.56C11078.3 1449.59 11079.2 1446.64 11080.1 1443.71L11081.4 1439.03L11082.5 1435.23C11101.1 1454.07 11116.7 1469.7 11119.3 1471.78C11138.1 1487.02 11160.3 1497.57 11184.9 1503.1C11194 1505.12 11198 1505.42 11215.8 1505.41C11231.6 1505.4 11238.4 1504.99 11245.3 1503.59C11258.9 1500.84 11274.4 1495.5 11286 1489.58C11291.7 1486.66 11354.9 1446.17 11426.5 1399.6C11498.2 1353.03 11557 1314.92 11557.2 1314.92C11557.5 1314.92 11593 1346.54 11636.2 1385.17C11708 1449.48 11715.8 1456.14 11728 1463.9C11754 1480.45 11776.9 1490.8 11796.9 1495.01C11810.4 1497.88 11829.5 1498.09 11843.7 1495.61L11841.9 1501.95C11834.8 1527.48 11827.4 1553.99 11819.7 1581L11817 1590.63C11753.8 1814.63 11678.5 2069.57 11666.1 2094.57L11665.5 2095.7C11665.5 2095.7 11665.5 2095.71 11665.5 2095.71C11650.5 2124.4 11642.2 2140.31 11607 2149.39ZM11552.6 2292.8C11577.6 2291.12 11598.7 2288.84 11616.5 2285.68C11652.6 2279.27 11694.6 2266.47 11731.1 2233.65C11760 2207.63 11776.8 2175.26 11783.7 2161.79L11784 2161.26C11784.5 2160.17 11785 2159.2 11785.4 2158.4L11786.6 2156.18L11787.1 2155.08C11794.2 2140.88 11800.8 2121.32 11804.5 2110.19C11809.7 2094.79 11815.9 2075.11 11822.9 2052.51C11837 2007.18 11854.8 1947.66 11874.1 1882.05C11895.8 1807.75 11909.9 1749.16 11924 1690.34C11934.8 1645.21 11943.8 1603.61 11955.4 1549.59L11967.7 1488.66L11973.5 1455.95L11978.3 1420.91C11978.7 1401.52 11970.9 1383.52 11958.2 1371C11958.4 1369.62 11958.5 1368.24 11958.6 1366.86C11959.2 1361.15 11958.8 1298.07 11957.6 1206.99C11956.6 1124.26 11956.1 1056.24 11956.5 1055.85C11957 1055.45 12022.1 1013.28 12101.3 962.137C12180.5 910.991 12249.3 866.282 12254.2 862.784C12282.5 842.485 12304.8 807.422 12312.9 770.617C12315.5 758.764 12316.6 732.043 12314.9 719.423C12311.8 695.901 12303.3 672.982 12290.6 653.923C12282.5 641.816 12273.8 632.094 12244.2 602.308C12228.9 586.844 12208.9 566.212 12199.8 556.458C12190.7 546.705 12179.9 535.806 12175.8 532.238C12155.3 514.505 12132.2 503.042 12104.3 496.807C12094.6 494.626 12092.5 494.56 12022.1 494.187L11949.8 493.804L11949.7 482.113C11949 394.808 11947.9 342.752 11946.4 334.923C11941.6 309.882 11931.7 286.967 11917.4 267.826C11911.5 259.98 11865.3 211.383 11824.9 170.605C11801.3 146.653 11789 137.515 11769 128.881C11758.1 124.191 11737 118.388 11725.8 116.975C11712.8 115.355 11690.9 115.806 11678.8 117.938C11636.9 125.33 11600.2 149.557 11577.2 184.95C11574.5 189.091 11533 260.289 11484.8 343.169L11397.4 493.86L11249.8 494.184L11102.3 494.507L11092.3 496.772C11061.1 503.838 11036.6 516.642 11015.6 536.787C10997.7 553.973 10986.2 572.139 10976.4 598.984C10969.4 617.813 10967.5 630.929 10968.1 653.423C10968.7 672.194 10970.6 683.527 10975.8 698.923C10981.2 714.659 10992.3 734.571 11002.7 746.923C11005.2 749.948 11026 771.643 11048.8 795.135C11071.6 818.626 11095.2 842.926 11101.1 849.135C11107 855.343 11122 870.841 11134.4 883.574L11156.9 906.726L11075.2 1046.57C11030.3 1123.49 10992.1 1189.35 10990.4 1192.92C10983.3 1207.05 10977.8 1225.44 10975.8 1241.52C10973.9 1256.21 10975.1 1281.79 10978.2 1294.92C10978.8 1297.74 10979.5 1300.49 10980.3 1303.18L10974.2 1321.04L10975.3 1322.2L10970.8 1337.04C10940.3 1436.53 10900.7 1575.16 10864.9 1705.42C10864.5 1704.79 10864.1 1704.16 10863.6 1703.53C10818.7 1639.53 10744.9 1625.16 10688.9 1625.16H10331.3L10536.5 900.133C10557.5 830.223 10547.5 762.313 10506.9 708.75C10467.7 656.955 10408.4 628.64 10338.2 628.64H9787.37C9728.12 628.64 9659.85 643.592 9598.78 691.119C9575.06 709.58 9555.7 730.407 9539.96 752.378C9533.6 737.037 9525.23 722.427 9514.88 708.751C9475.67 656.955 9416.36 628.64 9346.14 628.64H8163.29C8104.04 628.64 8035.77 643.592 7974.7 691.118C7950.97 709.578 7931.61 730.405 7915.88 752.374C7909.51 737.035 7901.15 722.426 7890.79 708.751C7851.58 656.955 7792.27 628.64 7722.05 628.64H6539.19C6479.95 628.64 6411.68 643.592 6350.61 691.118C6326.89 709.578 6307.53 730.404 6291.79 752.372C6285.43 737.034 6277.06 722.425 6266.71 708.751C6227.5 656.955 6168.18 628.64 6097.97 628.64H5547.15C5487.9 628.64 5419.63 643.592 5358.56 691.118C5298.03 738.221 5265.9 800.733 5249.89 858.315L5189.19 1069.21H4789.64C4732.5 1069.21 4666.98 1083.11 4607.61 1126.72L4672.19 900.313C4693.23 830.34 4683.22 762.36 4642.63 708.751C4603.41 656.955 4544.1 628.64 4473.89 628.64H3291.03C3231.78 628.64 3163.52 643.592 3102.44 691.118C3082.36 706.745 3065.41 724.067 3051.13 742.342C3044.42 721.26 3034.15 701.353 3020.34 683.111C2981.13 631.315 2921.81 603 2851.6 603H2300.77C2241.53 603 2173.26 617.952 2112.19 665.479C2051.5 712.707 2019.36 775.427 2003.39 833.135L1954.08 1008.02L1953.95 1008.49C1944.38 1043.27 1937.6 1087.27 1946.15 1130.95C1914.85 1169.18 1895.7 1212 1884.49 1252.39L1669.92 2002.24C1648.85 2072.24 1658.86 2140.25 1699.46 2193.88C1738.67 2245.67 1797.99 2273.99 1868.2 2273.99H2419.02C2478.27 2273.99 2546.54 2259.04 2607.61 2211.51C2627.69 2195.88 2644.64 2178.56 2658.92 2160.29C2665.63 2181.37 2675.9 2201.28 2689.71 2219.52C2728.93 2271.31 2788.24 2299.63 2858.46 2299.63H3409.28C3468.52 2299.63 3536.79 2284.68 3597.86 2237.15C3626.43 2214.92 3648.67 2189.25 3665.88 2162.29C3672.6 2182.63 3682.65 2201.85 3696.03 2219.52C3735.24 2271.31 3794.55 2299.63 3864.77 2299.63H4041.31C4100.56 2299.63 4168.83 2284.68 4229.9 2237.15C4253.62 2218.69 4272.98 2197.86 4288.72 2175.9C4295.08 2191.24 4303.45 2205.85 4313.8 2219.52C4353.01 2271.31 4412.32 2299.63 4482.54 2299.63H5665.39C5724.64 2299.63 5792.91 2284.68 5853.98 2237.15C5877.7 2218.69 5897.06 2197.86 5912.8 2175.89C5919.16 2191.23 5927.53 2205.84 5937.88 2219.52C5977.09 2271.31 6036.4 2299.63 6106.62 2299.63H7289.48C7348.72 2299.63 7416.99 2284.68 7478.06 2237.15C7501.79 2218.69 7521.15 2197.86 7536.88 2175.89C7543.25 2191.23 7551.61 2205.84 7561.97 2219.52C7601.18 2271.31 7660.5 2299.63 7730.71 2299.63H8913.57C8972.82 2299.63 9041.08 2284.68 9102.15 2237.15C9125.87 2218.69 9145.23 2197.86 9160.97 2175.89C9167.33 2191.23 9175.7 2205.84 9186.05 2219.52C9225.27 2271.31 9284.58 2299.63 9354.79 2299.63H10537.6C10596.9 2299.63 10665.1 2284.68 10726.2 2237.15C10749.8 2218.83 10769 2198.18 10784.7 2176.39C10793.7 2197.69 10808.8 2222.91 10834.9 2244.72C10874.2 2277.4 10920.4 2287.19 10952.4 2291.79C11016.3 2300.97 11121.9 2300.4 11287.8 2298.45L11311 2298.25C11317.2 2298.2 11323.3 2298.14 11329.4 2298.09C11354.9 2297.93 11380.4 2297.69 11406 2297.34C11411.8 2297.26 11417.6 2297.19 11423.4 2297.13C11477.1 2297.34 11503.9 2297.45 11530.4 2295.2C11537.7 2294.59 11544.9 2293.8 11552.6 2292.8ZM11278.2 961.036L11278.4 961.116L11211.1 1076.18C11211.1 1076.2 11211.1 1076.22 11211.1 1076.25C11157.3 1168.32 11113.7 1243.23 11112.7 1245.24C11110 1250.49 11109.3 1257.86 11110.9 1263.65C11112.4 1269.29 11119.2 1276.76 11172.8 1331.8C11196.8 1356.45 11208.5 1367.79 11211.3 1369.06C11216.5 1371.4 11221.5 1371.39 11228.2 1369.03C11231.6 1367.84 11296.4 1326.37 11403.3 1256.94C11496.6 1196.33 11573.5 1146.97 11574.2 1147.25C11574.4 1147.3 11575.9 1148.8 11578.7 1151.55L11579.7 1150.87L11651.3 1224.84C11651.3 1225 11651.2 1225.16 11651.1 1225.31C11660.8 1235.25 11671.1 1245.76 11681.7 1256.63C11740.1 1316.5 11789.1 1366.24 11790.6 1367.16C11794.9 1369.7 11802.4 1371.05 11808 1370.3C11816.3 1369.2 11824.5 1361.63 11826.9 1352.73C11827.6 1349.98 11827.3 1300.31 11825.8 1183.13C11824.7 1091.99 11823.9 1009.84 11824 1000.56L11824.3 983.7L11997.3 872.019C12092.5 810.594 12172.1 758.529 12174.4 756.319C12181.1 749.631 12182.8 738.684 12178.6 729.666C12175.7 723.59 12087.5 631.875 12081.3 628.578L12078.6 627.132C12077.8 626.854 12077 626.617 12076.2 626.421L11948.2 626.158L11819.1 625.894L11818.3 518.658C11817.3 378.517 11816.9 359.696 11814.3 354.423C11813.2 352.093 11800.1 337.692 11782.9 319.923C11728.7 263.774 11719.6 254.717 11716 253.209C11704.5 248.409 11692.7 250.664 11687.2 258.721C11685.8 260.757 11637.3 344.098 11579.3 443.923L11473.9 625.423L11297.1 625.923C11164.1 626.299 11119.7 626.716 11117.7 627.606C11113.5 629.492 11107.9 634.889 11105.5 639.328C11102.5 645.03 11102.5 655.811 11105.5 661.423C11106.7 663.623 11122.9 680.967 11141.5 699.965C11160.1 718.963 11184.6 744.226 11195.9 756.104C11207.2 767.983 11240.1 801.827 11268.9 831.313C11297.7 860.799 11321.4 885.284 11321.6 885.725C11321.7 885.993 11304.5 915.777 11278.2 961.036ZM10394.9 878.46L10142.4 1770.08H10668.5C10736.8 1770.08 10761.3 1805.05 10742.1 1874.98L10692.8 2049.81C10673.5 2119.74 10628.6 2154.7 10558 2154.7H9375.16C9346.91 2154.7 9324.85 2144.21 9308.97 2123.23C9293.08 2102.25 9289.46 2077.78 9298.1 2049.81L9632.21 878.46C9651.45 808.529 9696.38 773.564 9767 773.564H10317.8C10346.1 773.564 10368.1 784.053 10384 805.033C10399.9 826.012 10403.5 850.488 10394.9 878.46ZM7996.14 913.749L8008.12 878.46C8027.37 808.529 8072.3 773.564 8142.92 773.564H9325.78C9354.02 773.564 9376.09 784.053 9391.97 805.033C9407.85 826.012 9411.48 850.488 9402.84 878.46L9068.73 2049.81C9049.49 2119.74 9004.56 2154.7 8933.94 2154.7H7751.08C7722.83 2154.7 7700.77 2144.21 7684.88 2123.23C7669 2102.25 7665.38 2077.78 7674.02 2049.81L7885.29 1265.06C7893.5 1235.26 7906.57 1211.81 7924.53 1194.71C7948.71 1171.68 7981.74 1160.17 8023.62 1160.17H8570.33C8728.6 1160.17 8703.77 1018.65 8620.5 1018.65H8069.68C8066.03 1018.65 8062.52 1018.55 8059.12 1018.35C8020.47 1016.08 7997.98 1000.89 7991.65 972.788C7988.13 957.122 7989.62 937.442 7996.14 913.749ZM8539.4 1319.03C8479.69 1319.03 8438.35 1344.02 8415.36 1394.02C8411.17 1403.15 8407.58 1413.12 8404.61 1423.92L8274.13 1874.98C8265.49 1902.95 8269.11 1927.43 8284.99 1948.41C8300.88 1969.39 8322.94 1979.88 8351.19 1979.88H8806.68C8877.3 1979.88 8922.23 1944.91 8941.47 1874.98L9071.95 1423.92C9080.59 1395.95 9076.97 1371.47 9061.09 1350.5C9045.2 1329.52 9023.14 1319.03 8994.89 1319.03H8539.4ZM7778.74 878.46L7444.64 2049.81C7425.39 2119.74 7380.46 2154.7 7309.84 2154.7H6126.99C6098.74 2154.7 6076.67 2144.21 6060.79 2123.23C6044.91 2102.25 6041.29 2077.78 6049.92 2049.81L6384.03 878.46C6403.27 808.529 6448.21 773.564 6518.82 773.564H7701.68C7729.93 773.564 7751.99 784.053 7767.88 805.033C7783.76 826.012 7787.38 850.488 7778.74 878.46ZM7447.86 1423.92C7456.5 1395.95 7452.87 1371.47 7436.99 1350.5C7421.11 1329.52 7399.04 1319.03 7370.8 1319.03H6915.31C6844.69 1319.03 6799.76 1353.99 6780.51 1423.92L6650.03 1874.98C6641.4 1902.95 6645.02 1927.43 6660.9 1948.41C6676.78 1969.39 6698.85 1979.88 6727.1 1979.88H7182.58C7253.2 1979.88 7298.13 1944.91 7317.38 1874.98L7447.86 1423.92ZM5391.98 878.46C5411.23 808.529 5456.16 773.564 5526.78 773.564H6077.6C6105.85 773.564 6127.91 784.053 6143.8 805.033C6159.68 826.012 6163.3 850.488 6154.66 878.46L5820.56 2049.81C5801.31 2119.74 5756.38 2154.7 5685.76 2154.7H4502.91C4474.66 2154.7 4452.59 2144.21 4436.71 2123.23C4420.83 2102.25 4417.2 2077.78 4425.84 2049.81L4634.48 1319.03C4653.72 1249.1 4698.65 1214.13 4769.27 1214.13H5295.38L5391.98 878.46ZM5266.51 1319.03C5222.89 1319.03 5189.07 1332.37 5165.05 1359.05C5150.18 1375.57 5139.07 1397.19 5131.72 1423.92L5001.24 1874.98C4992.6 1902.95 4996.22 1927.43 5012.1 1948.41C5027.99 1969.39 5050.05 1979.88 5078.3 1979.88H5533.79C5604.41 1979.88 5649.34 1944.91 5668.58 1874.98L5799.06 1423.92C5807.7 1395.95 5804.08 1371.47 5788.19 1350.5C5772.31 1329.52 5750.25 1319.03 5722 1319.03H5266.51ZM4196.47 2049.81L4530.58 878.46C4539.22 850.488 4535.6 826.012 4519.71 805.033C4503.83 784.053 4481.77 773.564 4453.52 773.564H3270.66C3200.04 773.564 3155.11 808.529 3135.87 878.46L2801.76 2049.81C2793.12 2077.78 2796.74 2102.25 2812.63 2123.23C2828.51 2144.21 2850.58 2154.7 2878.82 2154.7H3429.65C3500.26 2154.7 3545.2 2119.74 3564.44 2049.81C3564.44 2049.81 3794.33 1245.96 3816.86 1158.18C3839.39 1070.41 4087.5 1070.41 4060.5 1158.18C4033.5 1245.96 3808.07 2049.81 3808.07 2049.81C3799.43 2077.78 3803.06 2102.25 3818.94 2123.23C3834.82 2144.21 3856.89 2154.7 3885.13 2154.7H4061.68C4132.3 2154.7 4177.23 2119.74 4196.47 2049.81ZM2118.92 951.5L2145.61 852.821C2164.86 782.89 2209.79 747.924 2280.41 747.924H2831.23C2859.48 747.924 2881.54 758.414 2897.43 779.393C2913.31 800.373 2916.93 824.848 2908.29 852.821L2871.92 970.5C2869.25 980.197 2864.12 996.147 2860.42 1004.5C2837.43 1056.38 2808.77 1083 2745.92 1083H2183.42C2182.79 1083 2179.79 1082.73 2176.93 1082.46C2174.39 1082.23 2171.97 1082.01 2171.42 1082C2107.94 1080.84 2101.73 1021.93 2117.42 957.5C2117.55 956.969 2117.67 956.466 2117.79 955.976C2118.14 954.503 2118.47 953.148 2118.92 951.5Z" fill="#F7F5FF"/>
<path d="M1.117 1728.88L1271.42 1695.06C1290.76 1694.53 1303.63 1709.39 1300.16 1728.19C1296.7 1747 1278.21 1762.67 1258.85 1763.19M1.117 1728.88L1258.89 1762.95ZM1.117 1728.88H1.104L1 1729.37H1.013L1.117 1728.88ZM1258.85 1763.19L1258.89 1762.95ZM1258.85 1763.19L1258.89 1762.95ZM1258.85 1763.19C1258.24 1763.21 1257.54 1763.21 1256.94 1763.19ZM1258.89 1762.95C1258.67 1762.96 1258.43 1762.96 1258.19 1762.96C1257.92 1762.96 1257.65 1762.96 1257.38 1762.96C1257.25 1762.95 1257.12 1762.95 1257 1762.95L1256.94 1763.19M1165.48 2098.73H1165.49C1184.87 2098 1203.23 2082.17 1206.51 2063.37C1209.76 2044.56 1196.7 2029.89 1177.32 2030.59L261.686 2064.42H261.667L261.563 2064.91H261.582L1162.84 2098.73C1163.69 2098.75 1164.62 2098.75 1165.48 2098.73ZM1526.54 732.528L704.248 766.352H704.227L704.123 766.841H704.144L1512.06 800.664C1513 800.71 1514.02 800.71 1515.01 800.664C1534.43 799.869 1552.73 783.971 1555.92 765.143C1559.11 746.337 1545.96 731.711 1526.54 732.528ZM1434.46 1071.04C1453.82 1070.4 1472.24 1054.62 1475.57 1035.81C1478.92 1017.01 1465.91 1002.27 1446.55 1002.9L431.371 1036.73H431.353L431.25 1037.22H431.267L1432.07 1071.04C1432.83 1071.06 1433.69 1071.06 1434.46 1071.04ZM1163.11 2325.25C1166.48 2306.45 1153.5 2291.68 1134.14 2292.3L69.169 2326.12H69.153L69.049 2326.61H69.065L1119.66 2360.43C1120.38 2360.45 1121.21 2360.45 1121.94 2360.43C1141.29 2359.82 1159.73 2344.06 1163.11 2325.25ZM232.237 1508.22L232.133 1508.71H232.149L1320.07 1542.53C1320.76 1542.56 1321.55 1542.56 1322.27 1542.53C1341.62 1541.94 1360.06 1526.2 1363.46 1507.4C1366.85 1488.59 1353.9 1473.81 1334.55 1474.4L232.252 1508.22H232.237ZM254.242 1296.33L254.138 1296.82H254.153L1391.84 1330.65C1392.51 1330.67 1393.28 1330.67 1393.96 1330.65C1413.28 1330.08 1431.75 1314.38 1435.18 1295.56C1438.59 1276.75 1425.67 1261.94 1406.33 1262.51L254.257 1296.33H254.242Z" fill="#F7F5FF"/>
<path d="M1.117 1728.88L1271.42 1695.06C1290.76 1694.53 1303.63 1709.39 1300.16 1728.19C1296.7 1747 1278.21 1762.67 1258.85 1763.19M1.117 1728.88L1258.89 1762.95M1.117 1728.88H1.104L1 1729.37H1.013L1.117 1728.88ZM1258.85 1763.19L1258.89 1762.95M1258.85 1763.19C1258.24 1763.21 1257.54 1763.21 1256.94 1763.19L1257 1762.95C1257.12 1762.95 1257.25 1762.95 1257.38 1762.96C1257.65 1762.96 1257.92 1762.96 1258.19 1762.96C1258.43 1762.96 1258.67 1762.96 1258.89 1762.95M1206.51 2063.37C1203.23 2082.17 1184.87 2098 1165.49 2098.73H1165.48C1164.62 2098.75 1163.69 2098.75 1162.84 2098.73L261.582 2064.91H261.563L261.667 2064.42H261.686L1177.32 2030.59C1196.7 2029.89 1209.76 2044.56 1206.51 2063.37ZM1206.51 2063.37L1206.26 2063.38M1434.46 1071.04L1434.5 1070.79M1434.46 1071.04C1453.82 1070.4 1472.24 1054.62 1475.57 1035.81C1478.92 1017.01 1465.91 1002.27 1446.55 1002.9L431.371 1036.73H431.353L431.25 1037.22H431.267L1432.07 1071.04C1432.83 1071.06 1433.69 1071.06 1434.46 1071.04ZM1526.54 732.528L704.248 766.352H704.227L704.123 766.841H704.144L1512.06 800.664C1513 800.71 1514.02 800.71 1515.01 800.664C1534.43 799.869 1552.73 783.971 1555.92 765.143C1559.11 746.337 1545.96 731.711 1526.54 732.528ZM1163.11 2325.25C1166.48 2306.45 1153.5 2291.68 1134.14 2292.3L69.169 2326.12H69.153L69.049 2326.61H69.065L1119.66 2360.43C1120.38 2360.45 1121.21 2360.45 1121.94 2360.43C1141.29 2359.82 1159.73 2344.06 1163.11 2325.25ZM232.237 1508.22L232.133 1508.71H232.149L1320.07 1542.53C1320.76 1542.56 1321.55 1542.56 1322.27 1542.53C1341.62 1541.94 1360.06 1526.2 1363.46 1507.4C1366.85 1488.59 1353.9 1473.81 1334.55 1474.4L232.252 1508.22H232.237ZM254.242 1296.33L254.138 1296.82H254.153L1391.84 1330.65C1392.51 1330.67 1393.28 1330.67 1393.96 1330.65C1413.28 1330.08 1431.75 1314.38 1435.18 1295.56C1438.59 1276.75 1425.67 1261.94 1406.33 1262.51L254.257 1296.33H254.242Z" stroke="#F7F5FF" stroke-width="0.5"/>
</svg>
