<svg width="20" height="22" viewBox="0 0 20 22" fill="none" xmlns="http://www.w3.org/2000/svg">
<path d="M1.14488 16.128L0.300164 16.6633L1.14488 16.128C0.975182 15.8602 0.953723 15.5366 1.08495 15.251L2.54137 12.3207L2.64588 12.1104V11.8756V8.43755C2.64588 4.42761 5.69009 1.18884 9.52437 1.00779C11.5315 0.91712 13.4202 1.61998 14.8637 2.99706L14.8639 2.99716C16.3106 4.37686 17.1039 6.23018 17.1039 8.22853V11.8756V12.1104L17.2083 12.3206L18.6567 15.2354C18.7978 15.5415 18.7716 15.8654 18.6049 16.1286C18.435 16.3967 18.1481 16.5547 17.8285 16.5547H1.92128C1.60226 16.5547 1.31507 16.3966 1.14488 16.128ZM8.19024 19.6519H11.5593C11.1404 20.1086 10.5398 20.3949 9.87488 20.3949C9.20977 20.3949 8.60909 20.1086 8.19024 19.6519Z" stroke="#7F6EF2" stroke-width="2"/>
</svg>
