<svg width="17" height="21" viewBox="0 0 17 21" fill="none" xmlns="http://www.w3.org/2000/svg">
<path d="M12.7857 5.22222C12.7857 6.34203 12.3342 7.41596 11.5305 8.20778C10.7267 8.9996 9.63664 9.44444 8.5 9.44444C7.36336 9.44444 6.27327 8.9996 5.46954 8.20778C4.66581 7.41596 4.21429 6.34203 4.21429 5.22222C4.21429 4.10242 4.66581 3.02848 5.46954 2.23666C6.27327 1.44484 7.36336 1 8.5 1C9.63664 1 10.7267 1.44484 11.5305 2.23666C12.3342 3.02848 12.7857 4.10242 12.7857 5.22222ZM8.5 12.6111C6.51088 12.6111 4.60322 13.3896 3.1967 14.7753C1.79018 16.161 1 18.0403 1 20H16C16 18.0403 15.2098 16.161 13.8033 14.7753C12.3968 13.3896 10.4891 12.6111 8.5 12.6111Z" stroke="#7F6EF2" stroke-width="1.3" stroke-linecap="round" stroke-linejoin="round"/>
</svg>
