<svg width="17" height="21" viewBox="0 0 17 21" fill="none" xmlns="http://www.w3.org/2000/svg">
<path d="M12.7857 4.9201C12.7857 6.0399 12.3342 7.11384 11.5305 7.90566C10.7267 8.69748 9.63664 9.14232 8.5 9.14232C7.36336 9.14232 6.27327 8.69748 5.46954 7.90566C4.66581 7.11384 4.21429 6.0399 4.21429 4.9201C4.21429 3.8003 4.66581 2.72636 5.46954 1.93454C6.27327 1.14272 7.36336 0.697876 8.5 0.697876C9.63664 0.697876 10.7267 1.14272 11.5305 1.93454C12.3342 2.72636 12.7857 3.8003 12.7857 4.9201ZM8.5 12.309C6.51088 12.309 4.60322 13.0875 3.1967 14.4731C1.79018 15.8588 1 17.7382 1 19.6979H16C16 17.7382 15.2098 15.8588 13.8033 14.4731C12.3968 13.0875 10.4891 12.309 8.5 12.309Z" fill="#7F6EF2" stroke="#7F6EF2" stroke-width="1.3" stroke-linecap="round" stroke-linejoin="round"/>
</svg>
