<svg width="21" height="21" viewBox="0 0 21 21" fill="none" xmlns="http://www.w3.org/2000/svg">
<path d="M6.27778 5.22222V1V5.22222ZM14.7222 5.22222V1V5.22222ZM3.11111 20H17.8889C18.4488 20 18.9858 19.7776 19.3817 19.3817C19.7776 18.9858 20 18.4488 20 17.8889V5.22222C20 4.66232 19.7776 4.12535 19.3817 3.72944C18.9858 3.33353 18.4488 3.11111 17.8889 3.11111H3.11111C2.55121 3.11111 2.01424 3.33353 1.61833 3.72944C1.22242 4.12535 1 4.66232 1 5.22222V17.8889C1 18.4488 1.22242 18.9858 1.61833 19.3817C2.01424 19.7776 2.55121 20 3.11111 20Z" fill="#7F6EF2"/>
<path d="M6.27778 5.22222V1M14.7222 5.22222V1M3.11111 20H17.8889C18.4488 20 18.9858 19.7776 19.3817 19.3817C19.7776 18.9858 20 18.4488 20 17.8889V5.22222C20 4.66232 19.7776 4.12535 19.3817 3.72944C18.9858 3.33353 18.4488 3.11111 17.8889 3.11111H3.11111C2.55121 3.11111 2.01424 3.33353 1.61833 3.72944C1.22242 4.12535 1 4.66232 1 5.22222V17.8889C1 18.4488 1.22242 18.9858 1.61833 19.3817C2.01424 19.7776 2.55121 20 3.11111 20Z" stroke="#7F6EF2" stroke-width="2" stroke-linecap="round" stroke-linejoin="round"/>
<circle cx="6.06665" cy="11.7667" r="1.26667" fill="white"/>
<circle cx="10.5" cy="11.7667" r="1.26667" fill="white"/>
<circle cx="14.9334" cy="11.7667" r="1.26667" fill="white"/>
<circle cx="6.06665" cy="15.5667" r="1.26667" fill="white"/>
<circle cx="10.5" cy="15.5667" r="1.26667" fill="white"/>
<circle cx="14.9334" cy="15.5667" r="1.26667" fill="white"/>
<path d="M4.79999 7.96666H16.2" stroke="white" stroke-width="2" stroke-linecap="round"/>
</svg>
