<svg width="20" height="20" viewBox="0 0 20 20" fill="none" xmlns="http://www.w3.org/2000/svg">
<circle cx="6.12221" cy="10.7356" r="1.18654" fill="#7F6EF2"/>
<circle cx="10.2753" cy="10.7356" r="1.18654" fill="#7F6EF2"/>
<circle cx="14.4279" cy="10.7356" r="1.18654" fill="#7F6EF2"/>
<circle cx="6.12221" cy="14.2952" r="1.18654" fill="#7F6EF2"/>
<circle cx="10.2753" cy="14.2952" r="1.18654" fill="#7F6EF2"/>
<circle cx="14.4279" cy="14.2952" r="1.18654" fill="#7F6EF2"/>
<path d="M4.93567 7.17596H15.6145" stroke="#7F6EF2" stroke-width="1.2" stroke-linecap="round"/>
<path fill-rule="evenodd" clip-rule="evenodd" d="M6.31998 0C6.67897 0 6.96998 0.291015 6.96998 0.65V1.97756H13.5802V0.65C13.5802 0.291015 13.8713 0 14.2302 0C14.5892 0 14.8802 0.291015 14.8802 0.65V1.97756H17.1966C17.8935 1.97756 18.5618 2.2544 19.0545 2.74716C19.5473 3.23992 19.8241 3.90825 19.8241 4.60513V16.4705C19.8241 17.1674 19.5473 17.8357 19.0545 18.3285C18.5618 18.8212 17.8935 19.0981 17.1966 19.0981H3.35364C2.65676 19.0981 1.98843 18.8212 1.49567 18.3285C1.00291 17.8357 0.726074 17.1674 0.726074 16.4705V4.60513C0.726074 3.90825 1.00291 3.23992 1.49567 2.74716C1.98843 2.2544 2.65676 1.97756 3.35364 1.97756H5.66998V0.65C5.66998 0.291015 5.961 0 6.31998 0ZM5.66998 3.27756H3.35364C3.00155 3.27756 2.66387 3.41743 2.41491 3.6664C2.16594 3.91536 2.02607 4.25304 2.02607 4.60513V16.4705C2.02607 16.8226 2.16594 17.1603 2.41491 17.4092C2.66388 17.6582 3.00155 17.7981 3.35364 17.7981H17.1966C17.5487 17.7981 17.8863 17.6582 18.1353 17.4092C18.3843 17.1603 18.5241 16.8226 18.5241 16.4705V4.60513C18.5241 4.25304 18.3843 3.91536 18.1353 3.6664C17.8863 3.41743 17.5487 3.27756 17.1966 3.27756H14.8802V4.60513C14.8802 4.96411 14.5892 5.25513 14.2302 5.25513C13.8713 5.25513 13.5802 4.96411 13.5802 4.60513V3.27756H6.96998V4.60513C6.96998 4.96411 6.67897 5.25513 6.31998 5.25513C5.961 5.25513 5.66998 4.96411 5.66998 4.60513V3.27756Z" fill="#7F6EF2"/>
</svg>
