<svg width="19" height="21" viewBox="0 0 19 21" fill="none" xmlns="http://www.w3.org/2000/svg">
<path d="M0 2.625C0 1.176 1.14585 0 2.55769 0H6.21154C6.50226 4.44604e-09 6.78107 0.118526 6.98664 0.329505C7.19221 0.540483 7.30769 0.826632 7.30769 1.125C7.30769 1.42337 7.19221 1.70952 6.98664 1.9205C6.78107 2.13147 6.50226 2.25 6.21154 2.25H2.55769C2.46079 2.25 2.36785 2.28951 2.29933 2.35984C2.2308 2.43016 2.19231 2.52554 2.19231 2.625V18.375C2.19231 18.582 2.356 18.75 2.55769 18.75H6.21154C6.50226 18.75 6.78107 18.8685 6.98664 19.0795C7.19221 19.2905 7.30769 19.5766 7.30769 19.875C7.30769 20.1734 7.19221 20.4595 6.98664 20.6705C6.78107 20.8815 6.50226 21 6.21154 21H2.55769C1.87935 21 1.22879 20.7234 0.749131 20.2312C0.269471 19.7389 0 19.0712 0 18.375V2.625ZM9.58769 9.375H17.9038C18.1946 9.375 18.4734 9.49353 18.6789 9.7045C18.8845 9.91548 19 10.2016 19 10.5C19 10.7984 18.8845 11.0845 18.6789 11.2955C18.4734 11.5065 18.1946 11.625 17.9038 11.625H9.58769L12.4669 14.58C12.6112 14.7175 12.7167 14.8924 12.7723 15.0863C12.8278 15.2802 12.8314 15.4858 12.7826 15.6816C12.7338 15.8774 12.6345 16.0561 12.4951 16.1988C12.3557 16.3415 12.1814 16.443 11.9905 16.4925C11.7999 16.5425 11.5998 16.5389 11.411 16.4821C11.2223 16.4254 11.0519 16.3176 10.9177 16.17L6.16769 11.295C5.96242 11.0841 5.84712 10.7981 5.84712 10.5C5.84712 10.2019 5.96242 9.91594 6.16769 9.705L10.9177 4.83C11.0517 4.68191 11.2221 4.57366 11.411 4.51664C11.5999 4.45961 11.8003 4.45594 11.9911 4.506C12.1818 4.55606 12.3559 4.658 12.4949 4.80108C12.634 4.94416 12.7329 5.12308 12.7812 5.319C12.8298 5.51457 12.8263 5.71998 12.7711 5.9137C12.7158 6.10741 12.6107 6.28229 12.4669 6.42L9.58769 9.375Z" fill="#7C7A87"/>
</svg>
