<svg width="23" height="21" viewBox="0 0 23 21" fill="none" xmlns="http://www.w3.org/2000/svg">
<path d="M6.54102 8.5418H21.0832C21.5916 8.5418 22.0791 8.74824 22.4386 9.11572C22.7981 9.48321 23 9.98162 23 10.5013C23 11.021 22.7981 11.5194 22.4386 11.8869C22.0791 12.2544 21.5916 12.4608 21.0832 12.4608H6.54102L11.5758 17.6078C11.8281 17.8474 12.0126 18.152 12.1097 18.4897C12.2069 18.8274 12.2132 19.1856 12.1279 19.5266C12.0426 19.8676 11.8689 20.1788 11.6251 20.4274C11.3813 20.676 11.0765 20.8527 10.7427 20.939C10.4094 21.026 10.0594 21.0198 9.72939 20.921C9.39934 20.8222 9.10137 20.6344 8.86674 20.3773L0.560577 11.886C0.201621 11.5186 0 11.0206 0 10.5013C0 9.98204 0.201621 9.484 0.560577 9.11659L8.86674 0.625335C9.10103 0.367398 9.39904 0.178837 9.72936 0.0795175C10.0597 -0.0198018 10.4101 -0.026202 10.7437 0.060992C11.0773 0.148186 11.3817 0.325746 11.6248 0.574964C11.868 0.824181 12.0409 1.13583 12.1253 1.47707C12.2104 1.81772 12.2043 2.17551 12.1077 2.51292C12.011 2.85033 11.8273 3.15493 11.5758 3.39479L6.54102 8.5418Z" fill="#7C7A87"/>
</svg>
