<svg width="18" height="18" viewBox="0 0 18 18" fill="none" xmlns="http://www.w3.org/2000/svg">
<path d="M16.8295 17.1532C16.1507 17.832 15.585 17.9451 15.1324 17.4926L9.05697 11.4171L3.04939 17.4247C2.59684 17.8772 2.03116 17.7641 1.35234 17.0853L1.11475 16.8477C0.435926 16.1689 0.32279 15.6032 0.775338 15.1506L6.78292 9.14305L0.707457 3.06759C0.254909 2.61504 0.368045 2.04935 1.04687 1.37053L1.28446 1.13294C1.96328 0.454119 2.52896 0.340982 2.98151 0.79353L9.05697 6.86899L15.0306 0.895353C15.4832 0.442804 16.0488 0.555939 16.7277 1.23476L16.9653 1.47235C17.6441 2.15117 17.7572 2.71686 17.3047 3.16941L11.331 9.14305L17.4065 15.2185C17.859 15.6711 17.7459 16.2367 17.0671 16.9156L16.8295 17.1532Z" fill="#FDFDFF"/>
</svg>
